<svg width="24" height="16" viewBox="0 0 24 16" fill="none" xmlns="http://www.w3.org/2000/svg">
<path d="M6.5 13.5H15.5V3.5V1.5C15.5 0.9 15.1 0.5 14.5 0.5H1.5C0.9 0.5 0.5 0.9 0.5 1.5V12.5C0.5 13.1 0.9 13.5 1.5 13.5H2.5" stroke="white" stroke-miterlimit="10" stroke-linecap="round" stroke-linejoin="round"/>
<path d="M20.5 13.5H22.5C23.1 13.5 23.5 13.1 23.5 12.5V7.9C23.5 7.6 23.4 7.4 23.2 7.2L19.8 3.8C19.6 3.6 19.4 3.5 19.1 3.5H15.5V13.5H16.5" stroke="white" stroke-miterlimit="10" stroke-linecap="round" stroke-linejoin="round"/>
<path d="M4.5 15.5C5.60457 15.5 6.5 14.6046 6.5 13.5C6.5 12.3954 5.60457 11.5 4.5 11.5C3.39543 11.5 2.5 12.3954 2.5 13.5C2.5 14.6046 3.39543 15.5 4.5 15.5Z" stroke="white" stroke-miterlimit="10" stroke-linecap="round" stroke-linejoin="round"/>
<path d="M18.5 15.5C19.6046 15.5 20.5 14.6046 20.5 13.5C20.5 12.3954 19.6046 11.5 18.5 11.5C17.3954 11.5 16.5 12.3954 16.5 13.5C16.5 14.6046 17.3954 15.5 18.5 15.5Z" stroke="white" stroke-miterlimit="10" stroke-linecap="round" stroke-linejoin="round"/>
</svg>
